<mxfile host="app.diagrams.net" modified="2020-08-03T06:49:08.423Z" agent="5.0 (Windows NT 10.0; Win64; x64) AppleWebKit/537.36 (KHTML, like Gecko) Chrome/84.0.4147.105 Safari/537.36" etag="-7klitrj29NKPY8ah5su" version="13.5.8" type="github">
  <diagram id="XL_baglNjrij0Mru3PyX" name="Page-1">
    <mxGraphModel dx="782" dy="469" grid="1" gridSize="10" guides="1" tooltips="1" connect="1" arrows="1" fold="1" page="1" pageScale="1" pageWidth="827" pageHeight="1169" math="0" shadow="0">
      <root>
        <mxCell id="0" />
        <mxCell id="1" parent="0" />
        <mxCell id="84PPQ4ii_GrX77M3zF7X-29" value="tanggal_diperbaharui" style="shape=partialRectangle;connectable=0;fillColor=none;top=0;left=0;bottom=0;right=0;align=left;spacingLeft=6;overflow=hidden;" vertex="1" parent="1">
          <mxGeometry x="580" y="260" width="150" height="30" as="geometry" />
        </mxCell>
        <mxCell id="84PPQ4ii_GrX77M3zF7X-43" value="jawaban" style="shape=table;startSize=30;container=1;collapsible=1;childLayout=tableLayout;fixedRows=1;rowLines=0;fontStyle=1;align=center;resizeLast=1;" vertex="1" parent="1">
          <mxGeometry x="60" y="320" width="180" height="230" as="geometry" />
        </mxCell>
        <mxCell id="84PPQ4ii_GrX77M3zF7X-44" value="" style="shape=partialRectangle;collapsible=0;dropTarget=0;pointerEvents=0;fillColor=none;top=0;left=0;bottom=1;right=0;points=[[0,0.5],[1,0.5]];portConstraint=eastwest;" vertex="1" parent="84PPQ4ii_GrX77M3zF7X-43">
          <mxGeometry y="30" width="180" height="30" as="geometry" />
        </mxCell>
        <mxCell id="84PPQ4ii_GrX77M3zF7X-45" value="PK" style="shape=partialRectangle;connectable=0;fillColor=none;top=0;left=0;bottom=0;right=0;fontStyle=1;overflow=hidden;" vertex="1" parent="84PPQ4ii_GrX77M3zF7X-44">
          <mxGeometry width="30" height="30" as="geometry" />
        </mxCell>
        <mxCell id="84PPQ4ii_GrX77M3zF7X-46" value="id_jawaban" style="shape=partialRectangle;connectable=0;fillColor=none;top=0;left=0;bottom=0;right=0;align=left;spacingLeft=6;fontStyle=5;overflow=hidden;" vertex="1" parent="84PPQ4ii_GrX77M3zF7X-44">
          <mxGeometry x="30" width="150" height="30" as="geometry" />
        </mxCell>
        <mxCell id="84PPQ4ii_GrX77M3zF7X-47" value="" style="shape=partialRectangle;collapsible=0;dropTarget=0;pointerEvents=0;fillColor=none;top=0;left=0;bottom=0;right=0;points=[[0,0.5],[1,0.5]];portConstraint=eastwest;" vertex="1" parent="84PPQ4ii_GrX77M3zF7X-43">
          <mxGeometry y="60" width="180" height="30" as="geometry" />
        </mxCell>
        <mxCell id="84PPQ4ii_GrX77M3zF7X-48" value="" style="shape=partialRectangle;connectable=0;fillColor=none;top=0;left=0;bottom=0;right=0;editable=1;overflow=hidden;" vertex="1" parent="84PPQ4ii_GrX77M3zF7X-47">
          <mxGeometry width="30" height="30" as="geometry" />
        </mxCell>
        <mxCell id="84PPQ4ii_GrX77M3zF7X-49" value="id_pertanyaan" style="shape=partialRectangle;connectable=0;fillColor=none;top=0;left=0;bottom=0;right=0;align=left;spacingLeft=6;overflow=hidden;" vertex="1" parent="84PPQ4ii_GrX77M3zF7X-47">
          <mxGeometry x="30" width="150" height="30" as="geometry" />
        </mxCell>
        <mxCell id="84PPQ4ii_GrX77M3zF7X-53" value="" style="shape=partialRectangle;collapsible=0;dropTarget=0;pointerEvents=0;fillColor=none;top=0;left=0;bottom=0;right=0;points=[[0,0.5],[1,0.5]];portConstraint=eastwest;" vertex="1" parent="84PPQ4ii_GrX77M3zF7X-43">
          <mxGeometry y="90" width="180" height="30" as="geometry" />
        </mxCell>
        <mxCell id="84PPQ4ii_GrX77M3zF7X-54" value="" style="shape=partialRectangle;connectable=0;fillColor=none;top=0;left=0;bottom=0;right=0;editable=1;overflow=hidden;" vertex="1" parent="84PPQ4ii_GrX77M3zF7X-53">
          <mxGeometry width="30" height="30" as="geometry" />
        </mxCell>
        <mxCell id="84PPQ4ii_GrX77M3zF7X-55" value="tanggal_dibuat" style="shape=partialRectangle;connectable=0;fillColor=none;top=0;left=0;bottom=0;right=0;align=left;spacingLeft=6;overflow=hidden;" vertex="1" parent="84PPQ4ii_GrX77M3zF7X-53">
          <mxGeometry x="30" width="150" height="30" as="geometry" />
        </mxCell>
        <mxCell id="84PPQ4ii_GrX77M3zF7X-50" value="" style="shape=partialRectangle;collapsible=0;dropTarget=0;pointerEvents=0;fillColor=none;top=0;left=0;bottom=0;right=0;points=[[0,0.5],[1,0.5]];portConstraint=eastwest;" vertex="1" parent="84PPQ4ii_GrX77M3zF7X-43">
          <mxGeometry y="120" width="180" height="30" as="geometry" />
        </mxCell>
        <mxCell id="84PPQ4ii_GrX77M3zF7X-51" value="" style="shape=partialRectangle;connectable=0;fillColor=none;top=0;left=0;bottom=0;right=0;editable=1;overflow=hidden;" vertex="1" parent="84PPQ4ii_GrX77M3zF7X-50">
          <mxGeometry width="30" height="30" as="geometry" />
        </mxCell>
        <mxCell id="84PPQ4ii_GrX77M3zF7X-52" value="isi" style="shape=partialRectangle;connectable=0;fillColor=none;top=0;left=0;bottom=0;right=0;align=left;spacingLeft=6;overflow=hidden;" vertex="1" parent="84PPQ4ii_GrX77M3zF7X-50">
          <mxGeometry x="30" width="150" height="30" as="geometry" />
        </mxCell>
        <mxCell id="84PPQ4ii_GrX77M3zF7X-58" value="" style="shape=partialRectangle;collapsible=0;dropTarget=0;pointerEvents=0;fillColor=none;top=0;left=0;bottom=0;right=0;points=[[0,0.5],[1,0.5]];portConstraint=eastwest;" vertex="1" parent="84PPQ4ii_GrX77M3zF7X-43">
          <mxGeometry y="150" width="180" height="30" as="geometry" />
        </mxCell>
        <mxCell id="84PPQ4ii_GrX77M3zF7X-59" value="" style="shape=partialRectangle;connectable=0;fillColor=none;top=0;left=0;bottom=0;right=0;editable=1;overflow=hidden;" vertex="1" parent="84PPQ4ii_GrX77M3zF7X-58">
          <mxGeometry width="30" height="30" as="geometry" />
        </mxCell>
        <mxCell id="84PPQ4ii_GrX77M3zF7X-60" value="" style="shape=partialRectangle;connectable=0;fillColor=none;top=0;left=0;bottom=0;right=0;align=left;spacingLeft=6;overflow=hidden;" vertex="1" parent="84PPQ4ii_GrX77M3zF7X-58">
          <mxGeometry x="30" width="150" height="30" as="geometry" />
        </mxCell>
        <mxCell id="84PPQ4ii_GrX77M3zF7X-56" value="tanggal_diperbaharui" style="shape=partialRectangle;connectable=0;fillColor=none;top=0;left=0;bottom=0;right=0;align=left;spacingLeft=6;overflow=hidden;" vertex="1" parent="1">
          <mxGeometry x="90" y="470" width="150" height="30" as="geometry" />
        </mxCell>
        <mxCell id="84PPQ4ii_GrX77M3zF7X-57" value="FK" style="shape=partialRectangle;connectable=0;fillColor=none;top=0;left=0;bottom=0;right=0;fontStyle=1;overflow=hidden;" vertex="1" parent="1">
          <mxGeometry x="60" y="380" width="30" height="30" as="geometry" />
        </mxCell>
        <mxCell id="84PPQ4ii_GrX77M3zF7X-74" value="tanggal_diperbaharui" style="shape=partialRectangle;connectable=0;fillColor=none;top=0;left=0;bottom=0;right=0;align=left;spacingLeft=6;overflow=hidden;" vertex="1" parent="1">
          <mxGeometry x="580" y="520" width="150" height="30" as="geometry" />
        </mxCell>
        <mxCell id="84PPQ4ii_GrX77M3zF7X-75" value="FK" style="shape=partialRectangle;connectable=0;fillColor=none;top=0;left=0;bottom=0;right=0;fontStyle=1;overflow=hidden;" vertex="1" parent="1">
          <mxGeometry x="550" y="430" width="30" height="30" as="geometry" />
        </mxCell>
        <mxCell id="84PPQ4ii_GrX77M3zF7X-16" value="pertanyaan" style="shape=table;startSize=30;container=1;collapsible=1;childLayout=tableLayout;fixedRows=1;rowLines=0;fontStyle=1;align=center;resizeLast=1;" vertex="1" parent="1">
          <mxGeometry x="550" y="110" width="180" height="220" as="geometry" />
        </mxCell>
        <mxCell id="84PPQ4ii_GrX77M3zF7X-17" value="" style="shape=partialRectangle;collapsible=0;dropTarget=0;pointerEvents=0;fillColor=none;top=0;left=0;bottom=1;right=0;points=[[0,0.5],[1,0.5]];portConstraint=eastwest;" vertex="1" parent="84PPQ4ii_GrX77M3zF7X-16">
          <mxGeometry y="30" width="180" height="30" as="geometry" />
        </mxCell>
        <mxCell id="84PPQ4ii_GrX77M3zF7X-18" value="PK" style="shape=partialRectangle;connectable=0;fillColor=none;top=0;left=0;bottom=0;right=0;fontStyle=1;overflow=hidden;" vertex="1" parent="84PPQ4ii_GrX77M3zF7X-17">
          <mxGeometry width="30" height="30" as="geometry" />
        </mxCell>
        <mxCell id="84PPQ4ii_GrX77M3zF7X-19" value="id_pertanyaan" style="shape=partialRectangle;connectable=0;fillColor=none;top=0;left=0;bottom=0;right=0;align=left;spacingLeft=6;fontStyle=5;overflow=hidden;" vertex="1" parent="84PPQ4ii_GrX77M3zF7X-17">
          <mxGeometry x="30" width="150" height="30" as="geometry" />
        </mxCell>
        <mxCell id="84PPQ4ii_GrX77M3zF7X-20" value="" style="shape=partialRectangle;collapsible=0;dropTarget=0;pointerEvents=0;fillColor=none;top=0;left=0;bottom=0;right=0;points=[[0,0.5],[1,0.5]];portConstraint=eastwest;" vertex="1" parent="84PPQ4ii_GrX77M3zF7X-16">
          <mxGeometry y="60" width="180" height="30" as="geometry" />
        </mxCell>
        <mxCell id="84PPQ4ii_GrX77M3zF7X-21" value="" style="shape=partialRectangle;connectable=0;fillColor=none;top=0;left=0;bottom=0;right=0;editable=1;overflow=hidden;" vertex="1" parent="84PPQ4ii_GrX77M3zF7X-20">
          <mxGeometry width="30" height="30" as="geometry" />
        </mxCell>
        <mxCell id="84PPQ4ii_GrX77M3zF7X-22" value="judul" style="shape=partialRectangle;connectable=0;fillColor=none;top=0;left=0;bottom=0;right=0;align=left;spacingLeft=6;overflow=hidden;" vertex="1" parent="84PPQ4ii_GrX77M3zF7X-20">
          <mxGeometry x="30" width="150" height="30" as="geometry" />
        </mxCell>
        <mxCell id="84PPQ4ii_GrX77M3zF7X-23" value="" style="shape=partialRectangle;collapsible=0;dropTarget=0;pointerEvents=0;fillColor=none;top=0;left=0;bottom=0;right=0;points=[[0,0.5],[1,0.5]];portConstraint=eastwest;" vertex="1" parent="84PPQ4ii_GrX77M3zF7X-16">
          <mxGeometry y="90" width="180" height="30" as="geometry" />
        </mxCell>
        <mxCell id="84PPQ4ii_GrX77M3zF7X-24" value="" style="shape=partialRectangle;connectable=0;fillColor=none;top=0;left=0;bottom=0;right=0;editable=1;overflow=hidden;" vertex="1" parent="84PPQ4ii_GrX77M3zF7X-23">
          <mxGeometry width="30" height="30" as="geometry" />
        </mxCell>
        <mxCell id="84PPQ4ii_GrX77M3zF7X-25" value="isi" style="shape=partialRectangle;connectable=0;fillColor=none;top=0;left=0;bottom=0;right=0;align=left;spacingLeft=6;overflow=hidden;" vertex="1" parent="84PPQ4ii_GrX77M3zF7X-23">
          <mxGeometry x="30" width="150" height="30" as="geometry" />
        </mxCell>
        <mxCell id="84PPQ4ii_GrX77M3zF7X-26" value="" style="shape=partialRectangle;collapsible=0;dropTarget=0;pointerEvents=0;fillColor=none;top=0;left=0;bottom=0;right=0;points=[[0,0.5],[1,0.5]];portConstraint=eastwest;" vertex="1" parent="84PPQ4ii_GrX77M3zF7X-16">
          <mxGeometry y="120" width="180" height="30" as="geometry" />
        </mxCell>
        <mxCell id="84PPQ4ii_GrX77M3zF7X-27" value="" style="shape=partialRectangle;connectable=0;fillColor=none;top=0;left=0;bottom=0;right=0;editable=1;overflow=hidden;" vertex="1" parent="84PPQ4ii_GrX77M3zF7X-26">
          <mxGeometry width="30" height="30" as="geometry" />
        </mxCell>
        <mxCell id="84PPQ4ii_GrX77M3zF7X-28" value="tanggal_dibuat" style="shape=partialRectangle;connectable=0;fillColor=none;top=0;left=0;bottom=0;right=0;align=left;spacingLeft=6;overflow=hidden;" vertex="1" parent="84PPQ4ii_GrX77M3zF7X-26">
          <mxGeometry x="30" width="150" height="30" as="geometry" />
        </mxCell>
        <mxCell id="84PPQ4ii_GrX77M3zF7X-89" value="id_users" style="shape=partialRectangle;connectable=0;fillColor=none;top=0;left=0;bottom=0;right=0;align=left;spacingLeft=6;overflow=hidden;" vertex="1" parent="1">
          <mxGeometry x="90" y="260" width="150" height="30" as="geometry" />
        </mxCell>
        <mxCell id="84PPQ4ii_GrX77M3zF7X-90" value="FK" style="shape=partialRectangle;connectable=0;fillColor=none;top=0;left=0;bottom=0;right=0;fontStyle=1;overflow=hidden;" vertex="1" parent="1">
          <mxGeometry x="60" y="260" width="30" height="30" as="geometry" />
        </mxCell>
        <mxCell id="84PPQ4ii_GrX77M3zF7X-3" value="profil" style="shape=table;startSize=30;container=1;collapsible=1;childLayout=tableLayout;fixedRows=1;rowLines=0;fontStyle=1;align=center;resizeLast=1;" vertex="1" parent="1">
          <mxGeometry x="60" y="110" width="180" height="190" as="geometry" />
        </mxCell>
        <mxCell id="84PPQ4ii_GrX77M3zF7X-4" value="" style="shape=partialRectangle;collapsible=0;dropTarget=0;pointerEvents=0;fillColor=none;top=0;left=0;bottom=1;right=0;points=[[0,0.5],[1,0.5]];portConstraint=eastwest;" vertex="1" parent="84PPQ4ii_GrX77M3zF7X-3">
          <mxGeometry y="30" width="180" height="30" as="geometry" />
        </mxCell>
        <mxCell id="84PPQ4ii_GrX77M3zF7X-5" value="PK" style="shape=partialRectangle;connectable=0;fillColor=none;top=0;left=0;bottom=0;right=0;fontStyle=1;overflow=hidden;" vertex="1" parent="84PPQ4ii_GrX77M3zF7X-4">
          <mxGeometry width="30" height="30" as="geometry" />
        </mxCell>
        <mxCell id="84PPQ4ii_GrX77M3zF7X-6" value="id_profil" style="shape=partialRectangle;connectable=0;fillColor=none;top=0;left=0;bottom=0;right=0;align=left;spacingLeft=6;fontStyle=5;overflow=hidden;" vertex="1" parent="84PPQ4ii_GrX77M3zF7X-4">
          <mxGeometry x="30" width="150" height="30" as="geometry" />
        </mxCell>
        <mxCell id="84PPQ4ii_GrX77M3zF7X-7" value="" style="shape=partialRectangle;collapsible=0;dropTarget=0;pointerEvents=0;fillColor=none;top=0;left=0;bottom=0;right=0;points=[[0,0.5],[1,0.5]];portConstraint=eastwest;" vertex="1" parent="84PPQ4ii_GrX77M3zF7X-3">
          <mxGeometry y="60" width="180" height="30" as="geometry" />
        </mxCell>
        <mxCell id="84PPQ4ii_GrX77M3zF7X-8" value="" style="shape=partialRectangle;connectable=0;fillColor=none;top=0;left=0;bottom=0;right=0;editable=1;overflow=hidden;" vertex="1" parent="84PPQ4ii_GrX77M3zF7X-7">
          <mxGeometry width="30" height="30" as="geometry" />
        </mxCell>
        <mxCell id="84PPQ4ii_GrX77M3zF7X-9" value="nama_lengkap" style="shape=partialRectangle;connectable=0;fillColor=none;top=0;left=0;bottom=0;right=0;align=left;spacingLeft=6;overflow=hidden;" vertex="1" parent="84PPQ4ii_GrX77M3zF7X-7">
          <mxGeometry x="30" width="150" height="30" as="geometry" />
        </mxCell>
        <mxCell id="84PPQ4ii_GrX77M3zF7X-10" value="" style="shape=partialRectangle;collapsible=0;dropTarget=0;pointerEvents=0;fillColor=none;top=0;left=0;bottom=0;right=0;points=[[0,0.5],[1,0.5]];portConstraint=eastwest;" vertex="1" parent="84PPQ4ii_GrX77M3zF7X-3">
          <mxGeometry y="90" width="180" height="30" as="geometry" />
        </mxCell>
        <mxCell id="84PPQ4ii_GrX77M3zF7X-11" value="" style="shape=partialRectangle;connectable=0;fillColor=none;top=0;left=0;bottom=0;right=0;editable=1;overflow=hidden;" vertex="1" parent="84PPQ4ii_GrX77M3zF7X-10">
          <mxGeometry width="30" height="30" as="geometry" />
        </mxCell>
        <mxCell id="84PPQ4ii_GrX77M3zF7X-12" value="email" style="shape=partialRectangle;connectable=0;fillColor=none;top=0;left=0;bottom=0;right=0;align=left;spacingLeft=6;overflow=hidden;" vertex="1" parent="84PPQ4ii_GrX77M3zF7X-10">
          <mxGeometry x="30" width="150" height="30" as="geometry" />
        </mxCell>
        <mxCell id="84PPQ4ii_GrX77M3zF7X-13" value="" style="shape=partialRectangle;collapsible=0;dropTarget=0;pointerEvents=0;fillColor=none;top=0;left=0;bottom=0;right=0;points=[[0,0.5],[1,0.5]];portConstraint=eastwest;" vertex="1" parent="84PPQ4ii_GrX77M3zF7X-3">
          <mxGeometry y="120" width="180" height="30" as="geometry" />
        </mxCell>
        <mxCell id="84PPQ4ii_GrX77M3zF7X-14" value="" style="shape=partialRectangle;connectable=0;fillColor=none;top=0;left=0;bottom=0;right=0;editable=1;overflow=hidden;" vertex="1" parent="84PPQ4ii_GrX77M3zF7X-13">
          <mxGeometry width="30" height="30" as="geometry" />
        </mxCell>
        <mxCell id="84PPQ4ii_GrX77M3zF7X-15" value="photo" style="shape=partialRectangle;connectable=0;fillColor=none;top=0;left=0;bottom=0;right=0;align=left;spacingLeft=6;overflow=hidden;" vertex="1" parent="84PPQ4ii_GrX77M3zF7X-13">
          <mxGeometry x="30" width="150" height="30" as="geometry" />
        </mxCell>
        <mxCell id="84PPQ4ii_GrX77M3zF7X-76" value="users" style="shape=table;startSize=30;container=1;collapsible=1;childLayout=tableLayout;fixedRows=1;rowLines=0;fontStyle=1;align=center;resizeLast=1;" vertex="1" parent="1">
          <mxGeometry x="300" y="110" width="180" height="190" as="geometry" />
        </mxCell>
        <mxCell id="84PPQ4ii_GrX77M3zF7X-77" value="" style="shape=partialRectangle;collapsible=0;dropTarget=0;pointerEvents=0;fillColor=none;top=0;left=0;bottom=1;right=0;points=[[0,0.5],[1,0.5]];portConstraint=eastwest;" vertex="1" parent="84PPQ4ii_GrX77M3zF7X-76">
          <mxGeometry y="30" width="180" height="30" as="geometry" />
        </mxCell>
        <mxCell id="84PPQ4ii_GrX77M3zF7X-78" value="PK" style="shape=partialRectangle;connectable=0;fillColor=none;top=0;left=0;bottom=0;right=0;fontStyle=1;overflow=hidden;" vertex="1" parent="84PPQ4ii_GrX77M3zF7X-77">
          <mxGeometry width="30" height="30" as="geometry" />
        </mxCell>
        <mxCell id="84PPQ4ii_GrX77M3zF7X-79" value="id_users" style="shape=partialRectangle;connectable=0;fillColor=none;top=0;left=0;bottom=0;right=0;align=left;spacingLeft=6;fontStyle=5;overflow=hidden;" vertex="1" parent="84PPQ4ii_GrX77M3zF7X-77">
          <mxGeometry x="30" width="150" height="30" as="geometry" />
        </mxCell>
        <mxCell id="84PPQ4ii_GrX77M3zF7X-80" value="" style="shape=partialRectangle;collapsible=0;dropTarget=0;pointerEvents=0;fillColor=none;top=0;left=0;bottom=0;right=0;points=[[0,0.5],[1,0.5]];portConstraint=eastwest;" vertex="1" parent="84PPQ4ii_GrX77M3zF7X-76">
          <mxGeometry y="60" width="180" height="30" as="geometry" />
        </mxCell>
        <mxCell id="84PPQ4ii_GrX77M3zF7X-81" value="" style="shape=partialRectangle;connectable=0;fillColor=none;top=0;left=0;bottom=0;right=0;editable=1;overflow=hidden;" vertex="1" parent="84PPQ4ii_GrX77M3zF7X-80">
          <mxGeometry width="30" height="30" as="geometry" />
        </mxCell>
        <mxCell id="84PPQ4ii_GrX77M3zF7X-82" value="nama_lengkap" style="shape=partialRectangle;connectable=0;fillColor=none;top=0;left=0;bottom=0;right=0;align=left;spacingLeft=6;overflow=hidden;" vertex="1" parent="84PPQ4ii_GrX77M3zF7X-80">
          <mxGeometry x="30" width="150" height="30" as="geometry" />
        </mxCell>
        <mxCell id="84PPQ4ii_GrX77M3zF7X-83" value="" style="shape=partialRectangle;collapsible=0;dropTarget=0;pointerEvents=0;fillColor=none;top=0;left=0;bottom=0;right=0;points=[[0,0.5],[1,0.5]];portConstraint=eastwest;" vertex="1" parent="84PPQ4ii_GrX77M3zF7X-76">
          <mxGeometry y="90" width="180" height="30" as="geometry" />
        </mxCell>
        <mxCell id="84PPQ4ii_GrX77M3zF7X-84" value="" style="shape=partialRectangle;connectable=0;fillColor=none;top=0;left=0;bottom=0;right=0;editable=1;overflow=hidden;" vertex="1" parent="84PPQ4ii_GrX77M3zF7X-83">
          <mxGeometry width="30" height="30" as="geometry" />
        </mxCell>
        <mxCell id="84PPQ4ii_GrX77M3zF7X-85" value="email" style="shape=partialRectangle;connectable=0;fillColor=none;top=0;left=0;bottom=0;right=0;align=left;spacingLeft=6;overflow=hidden;" vertex="1" parent="84PPQ4ii_GrX77M3zF7X-83">
          <mxGeometry x="30" width="150" height="30" as="geometry" />
        </mxCell>
        <mxCell id="84PPQ4ii_GrX77M3zF7X-86" value="" style="shape=partialRectangle;collapsible=0;dropTarget=0;pointerEvents=0;fillColor=none;top=0;left=0;bottom=0;right=0;points=[[0,0.5],[1,0.5]];portConstraint=eastwest;" vertex="1" parent="84PPQ4ii_GrX77M3zF7X-76">
          <mxGeometry y="120" width="180" height="30" as="geometry" />
        </mxCell>
        <mxCell id="84PPQ4ii_GrX77M3zF7X-87" value="" style="shape=partialRectangle;connectable=0;fillColor=none;top=0;left=0;bottom=0;right=0;editable=1;overflow=hidden;" vertex="1" parent="84PPQ4ii_GrX77M3zF7X-86">
          <mxGeometry width="30" height="30" as="geometry" />
        </mxCell>
        <mxCell id="84PPQ4ii_GrX77M3zF7X-88" value="photo" style="shape=partialRectangle;connectable=0;fillColor=none;top=0;left=0;bottom=0;right=0;align=left;spacingLeft=6;overflow=hidden;" vertex="1" parent="84PPQ4ii_GrX77M3zF7X-86">
          <mxGeometry x="30" width="150" height="30" as="geometry" />
        </mxCell>
        <mxCell id="84PPQ4ii_GrX77M3zF7X-91" value="" style="edgeStyle=entityRelationEdgeStyle;fontSize=12;html=1;endArrow=ERmandOne;startArrow=ERmandOne;" edge="1" parent="1" source="84PPQ4ii_GrX77M3zF7X-7" target="84PPQ4ii_GrX77M3zF7X-76">
          <mxGeometry width="100" height="100" relative="1" as="geometry">
            <mxPoint x="330" y="350" as="sourcePoint" />
            <mxPoint x="430" y="250" as="targetPoint" />
          </mxGeometry>
        </mxCell>
        <mxCell id="84PPQ4ii_GrX77M3zF7X-92" value="id_users" style="shape=partialRectangle;connectable=0;fillColor=none;top=0;left=0;bottom=0;right=0;align=left;spacingLeft=6;overflow=hidden;" vertex="1" parent="1">
          <mxGeometry x="580" y="290" width="150" height="30" as="geometry" />
        </mxCell>
        <mxCell id="84PPQ4ii_GrX77M3zF7X-93" value="FK" style="shape=partialRectangle;connectable=0;fillColor=none;top=0;left=0;bottom=0;right=0;fontStyle=1;overflow=hidden;" vertex="1" parent="1">
          <mxGeometry x="550" y="290" width="30" height="30" as="geometry" />
        </mxCell>
        <mxCell id="84PPQ4ii_GrX77M3zF7X-94" value="" style="edgeStyle=entityRelationEdgeStyle;fontSize=12;html=1;endArrow=ERoneToMany;exitX=1;exitY=0.5;exitDx=0;exitDy=0;" edge="1" parent="1" source="84PPQ4ii_GrX77M3zF7X-77" target="84PPQ4ii_GrX77M3zF7X-23">
          <mxGeometry width="100" height="100" relative="1" as="geometry">
            <mxPoint x="330" y="350" as="sourcePoint" />
            <mxPoint x="430" y="250" as="targetPoint" />
          </mxGeometry>
        </mxCell>
        <mxCell id="84PPQ4ii_GrX77M3zF7X-61" value="komentar" style="shape=table;startSize=30;container=1;collapsible=1;childLayout=tableLayout;fixedRows=1;rowLines=0;fontStyle=1;align=center;resizeLast=1;" vertex="1" parent="1">
          <mxGeometry x="550" y="370" width="180" height="200" as="geometry" />
        </mxCell>
        <mxCell id="84PPQ4ii_GrX77M3zF7X-62" value="" style="shape=partialRectangle;collapsible=0;dropTarget=0;pointerEvents=0;fillColor=none;top=0;left=0;bottom=1;right=0;points=[[0,0.5],[1,0.5]];portConstraint=eastwest;" vertex="1" parent="84PPQ4ii_GrX77M3zF7X-61">
          <mxGeometry y="30" width="180" height="30" as="geometry" />
        </mxCell>
        <mxCell id="84PPQ4ii_GrX77M3zF7X-63" value="PK" style="shape=partialRectangle;connectable=0;fillColor=none;top=0;left=0;bottom=0;right=0;fontStyle=1;overflow=hidden;" vertex="1" parent="84PPQ4ii_GrX77M3zF7X-62">
          <mxGeometry width="30" height="30" as="geometry" />
        </mxCell>
        <mxCell id="84PPQ4ii_GrX77M3zF7X-64" value="id_komentar" style="shape=partialRectangle;connectable=0;fillColor=none;top=0;left=0;bottom=0;right=0;align=left;spacingLeft=6;fontStyle=5;overflow=hidden;" vertex="1" parent="84PPQ4ii_GrX77M3zF7X-62">
          <mxGeometry x="30" width="150" height="30" as="geometry" />
        </mxCell>
        <mxCell id="84PPQ4ii_GrX77M3zF7X-65" value="" style="shape=partialRectangle;collapsible=0;dropTarget=0;pointerEvents=0;fillColor=none;top=0;left=0;bottom=0;right=0;points=[[0,0.5],[1,0.5]];portConstraint=eastwest;" vertex="1" parent="84PPQ4ii_GrX77M3zF7X-61">
          <mxGeometry y="60" width="180" height="30" as="geometry" />
        </mxCell>
        <mxCell id="84PPQ4ii_GrX77M3zF7X-66" value="" style="shape=partialRectangle;connectable=0;fillColor=none;top=0;left=0;bottom=0;right=0;editable=1;overflow=hidden;" vertex="1" parent="84PPQ4ii_GrX77M3zF7X-65">
          <mxGeometry width="30" height="30" as="geometry" />
        </mxCell>
        <mxCell id="84PPQ4ii_GrX77M3zF7X-67" value="id_pertanyaan" style="shape=partialRectangle;connectable=0;fillColor=none;top=0;left=0;bottom=0;right=0;align=left;spacingLeft=6;overflow=hidden;" vertex="1" parent="84PPQ4ii_GrX77M3zF7X-65">
          <mxGeometry x="30" width="150" height="30" as="geometry" />
        </mxCell>
        <mxCell id="84PPQ4ii_GrX77M3zF7X-68" value="" style="shape=partialRectangle;collapsible=0;dropTarget=0;pointerEvents=0;fillColor=none;top=0;left=0;bottom=0;right=0;points=[[0,0.5],[1,0.5]];portConstraint=eastwest;" vertex="1" parent="84PPQ4ii_GrX77M3zF7X-61">
          <mxGeometry y="90" width="180" height="30" as="geometry" />
        </mxCell>
        <mxCell id="84PPQ4ii_GrX77M3zF7X-69" value="" style="shape=partialRectangle;connectable=0;fillColor=none;top=0;left=0;bottom=0;right=0;editable=1;overflow=hidden;" vertex="1" parent="84PPQ4ii_GrX77M3zF7X-68">
          <mxGeometry width="30" height="30" as="geometry" />
        </mxCell>
        <mxCell id="84PPQ4ii_GrX77M3zF7X-70" value="isi" style="shape=partialRectangle;connectable=0;fillColor=none;top=0;left=0;bottom=0;right=0;align=left;spacingLeft=6;overflow=hidden;" vertex="1" parent="84PPQ4ii_GrX77M3zF7X-68">
          <mxGeometry x="30" width="150" height="30" as="geometry" />
        </mxCell>
        <mxCell id="84PPQ4ii_GrX77M3zF7X-71" value="" style="shape=partialRectangle;collapsible=0;dropTarget=0;pointerEvents=0;fillColor=none;top=0;left=0;bottom=0;right=0;points=[[0,0.5],[1,0.5]];portConstraint=eastwest;" vertex="1" parent="84PPQ4ii_GrX77M3zF7X-61">
          <mxGeometry y="120" width="180" height="30" as="geometry" />
        </mxCell>
        <mxCell id="84PPQ4ii_GrX77M3zF7X-72" value="" style="shape=partialRectangle;connectable=0;fillColor=none;top=0;left=0;bottom=0;right=0;editable=1;overflow=hidden;" vertex="1" parent="84PPQ4ii_GrX77M3zF7X-71">
          <mxGeometry width="30" height="30" as="geometry" />
        </mxCell>
        <mxCell id="84PPQ4ii_GrX77M3zF7X-73" value="tanggal_dibuat" style="shape=partialRectangle;connectable=0;fillColor=none;top=0;left=0;bottom=0;right=0;align=left;spacingLeft=6;overflow=hidden;" vertex="1" parent="84PPQ4ii_GrX77M3zF7X-71">
          <mxGeometry x="30" width="150" height="30" as="geometry" />
        </mxCell>
      </root>
    </mxGraphModel>
  </diagram>
</mxfile>
